TITLE ""
FILE "1Q_t_1920-1928.mp3" MP3
  TRACK 01 AUDIO
    TITLE "1Q_t_1920-1928_01"
    INDEX 01 00:00:00
  TRACK 02 AUDIO
    TITLE "1Q_t_1920-1928_02"
    INDEX 01 00:01:33
  TRACK 03 AUDIO
    TITLE "1Q_t_1920-1928_03"
    INDEX 01 00:01:43
  TRACK 04 AUDIO
    TITLE "1Q_t_1920-1928_04"
    INDEX 01 00:05:13
  TRACK 05 AUDIO
    TITLE "1Q_t_1920-1928_05"
    INDEX 01 00:05:21
  TRACK 06 AUDIO
    TITLE "1Q_t_1920-1928_06"
    INDEX 01 00:09:27
  TRACK 07 AUDIO
    TITLE "1Q_t_1920-1928_07"
    INDEX 01 00:09:74
  TRACK 08 AUDIO
    TITLE "1Q_t_1920-1928_08"
    INDEX 01 00:11:34
  TRACK 09 AUDIO
    TITLE "1Q_t_1920-1928_09"
    INDEX 01 00:11:41
  TRACK 10 AUDIO
    TITLE "1Q_t_1920-1928_10"
    INDEX 01 00:14:73
  TRACK 11 AUDIO
    TITLE "1Q_t_1920-1928_11"
    INDEX 01 00:15:06
  TRACK 12 AUDIO
    TITLE "1Q_t_1920-1928_12"
    INDEX 01 00:18:65
  TRACK 13 AUDIO
    TITLE "1Q_t_1920-1928_13"
    INDEX 01 00:19:37
  TRACK 14 AUDIO
    TITLE "1Q_t_1920-1928_14"
    INDEX 01 00:20:38
  TRACK 15 AUDIO
    TITLE "1Q_t_1920-1928_15"
    INDEX 01 00:20:48
  TRACK 16 AUDIO
    TITLE "1Q_t_1920-1928_16"
    INDEX 01 00:23:39
  TRACK 17 AUDIO
    TITLE "1Q_t_1920-1928_17"
    INDEX 01 00:23:49
  TRACK 18 AUDIO
    TITLE "1Q_t_1920-1928_18"
    INDEX 01 00:28:03
  TRACK 19 AUDIO
    TITLE "1Q_t_1920-1928_19"
    INDEX 01 00:28:50
  TRACK 20 AUDIO
    TITLE "1Q_t_1920-1928_20"
    INDEX 01 00:29:61
  TRACK 21 AUDIO
    TITLE "1Q_t_1920-1928_21"
    INDEX 01 00:29:71
  TRACK 22 AUDIO
    TITLE "1Q_t_1920-1928_22"
    INDEX 01 00:35:15
  TRACK 23 AUDIO
    TITLE "1Q_t_1920-1928_23"
    INDEX 01 00:35:22
  TRACK 24 AUDIO
    TITLE "1Q_t_1920-1928_24"
    INDEX 01 00:40:25
  TRACK 25 AUDIO
    TITLE "1Q_t_1920-1928_25"
    INDEX 01 00:40:73
  TRACK 26 AUDIO
    TITLE "1Q_t_1920-1928_26"
    INDEX 01 00:42:13
  TRACK 27 AUDIO
    TITLE "1Q_t_1920-1928_27"
    INDEX 01 00:42:22
  TRACK 28 AUDIO
    TITLE "1Q_t_1920-1928_28"
    INDEX 01 00:43:30
  TRACK 29 AUDIO
    TITLE "1Q_t_1920-1928_29"
    INDEX 01 00:43:40
  TRACK 30 AUDIO
    TITLE "1Q_t_1920-1928_30"
    INDEX 01 00:48:25
  TRACK 31 AUDIO
    TITLE "1Q_t_1920-1928_31"
    INDEX 01 00:48:72
  TRACK 32 AUDIO
    TITLE "1Q_t_1920-1928_32"
    INDEX 01 00:50:02
  TRACK 33 AUDIO
    TITLE "1Q_t_1920-1928_33"
    INDEX 01 00:50:12
  TRACK 34 AUDIO
    TITLE "1Q_t_1920-1928_34"
    INDEX 01 00:51:47
  TRACK 35 AUDIO
    TITLE "1Q_t_1920-1928_35"
    INDEX 01 00:51:57
  TRACK 36 AUDIO
    TITLE "1Q_t_1920-1928_36"
    INDEX 01 00:57:47
  TRACK 37 AUDIO
    TITLE "1Q_t_1920-1928_37"
    INDEX 01 00:58:21
  TRACK 38 AUDIO
    TITLE "1Q_t_1920-1928_38"
    INDEX 01 00:59:23
  TRACK 39 AUDIO
    TITLE "1Q_t_1920-1928_39"
    INDEX 01 00:59:31
  TRACK 40 AUDIO
    TITLE "1Q_t_1920-1928_40"
    INDEX 01 01:04:10
  TRACK 41 AUDIO
    TITLE "1Q_t_1920-1928_41"
    INDEX 01 01:04:20
  TRACK 42 AUDIO
    TITLE "1Q_t_1920-1928_42"
    INDEX 01 01:09:68
  TRACK 43 AUDIO
    TITLE "1Q_t_1920-1928_43"
    INDEX 01 01:10:40
  TRACK 44 AUDIO
    TITLE "1Q_t_1920-1928_44"
    INDEX 01 01:11:59
  TRACK 45 AUDIO
    TITLE "1Q_t_1920-1928_45"
    INDEX 01 01:11:69
  TRACK 46 AUDIO
    TITLE "1Q_t_1920-1928_46"
    INDEX 01 01:14:09
  TRACK 47 AUDIO
    TITLE "1Q_t_1920-1928_47"
    INDEX 01 01:14:17
  TRACK 48 AUDIO
    TITLE "1Q_t_1920-1928_48"
    INDEX 01 01:19:31
  TRACK 49 AUDIO
    TITLE "1Q_t_1920-1928_49"
    INDEX 01 01:20:05
  TRACK 50 AUDIO
    TITLE "1Q_t_1920-1928_50"
    INDEX 01 01:21:24
  TRACK 51 AUDIO
    TITLE "1Q_t_1920-1928_51"
    INDEX 01 01:21:36
  TRACK 52 AUDIO
    TITLE "1Q_t_1920-1928_52"
    INDEX 01 01:24:31
  TRACK 53 AUDIO
    TITLE "1Q_t_1920-1928_53"
    INDEX 01 01:24:38
  TRACK 54 AUDIO
    TITLE "1Q_t_1920-1928_54"
    INDEX 01 01:29:45
